<svg xmlns="http://www.w3.org/2000/svg" xmlns:xlink="http://www.w3.org/1999/xlink" id="play-icon-shapes" width="100" height="100" version="1.1" viewBox="0 0 100 100"><g fill="none" fill-rule="evenodd" stroke="none" stroke-width="1" class="play-icon-shapes"><g fill="none" fill-rule="evenodd" stroke="none" stroke-width="1" class="fx"><circle cx="50" cy="50" r="50" fill="none" class="outer-circle-fx"/><circle cx="50" cy="50" r="50" fill="none" class="inner-circle-fx"/></g><path fill="none" fill-rule="nonzero" stroke="#FFF" d="M50,97 C75.957383,97 97,75.957383 97,50 C97,24.0426168 75.957383,3 50,3 C24.0426168,3 3,24.0426168 3,50 C3,75.957383 24.0426168,97 50,97 L50,97 L50,97 Z" class="outer-circle"/><path fill="none" fill-rule="nonzero" stroke="#000" d="M50,93 C73.748244,93 93,73.748244 93,50 C93,26.2517558 73.748244,7 50,7 C26.2517558,7 7,26.2517558 7,50 C7,73.748244 26.2517558,93 50,93 L50,93 L50,93 Z" class="inner-circle"/><path id="pause" fill="#FFF" fill-rule="nonzero" d="M54,35 L61,35 L61,67 L54,67 L54,35 Z M38,35 L45,35 L45,67 L38,67 L38,35 Z" class="pause"/><polyline fill-rule="nonzero" stroke="#000" points="40 68 40 34 68 51 40 68" class="play"/></g></svg>